<?xml version="1.0" encoding="UTF-8" standalone="no"?>
<svg viewBox="0 0 50 50" fill="currentColor" version="1.1" xmlns="http://www.w3.org/2000/svg">
  <path
     d="M 25,0.5000001 A 24.5,24.5 0 1 0 49.5,25 24.496839,24.496839 0 0 0 25,0.5000001 Z M 25,44.758064 A 19.758064,19.758064 0 1 1 44.758064,25 19.777032,19.777032 0 0 1 25,44.758064 Z M 35.432258,29.802 A 36.670968,36.670968 0 0 1 25,31.094968 36.715226,36.715226 0 0 1 14.567742,29.802 1.3561935,1.3561935 0 0 0 12.819548,31.313097 c 0.780839,4.653419 7.043355,7.903226 12.180452,7.903226 5.137097,0 11.380645,-3.249807 12.180451,-7.903226 A 1.3593548,1.3593548 0 0 0 35.432258,29.802 Z M 17.096774,23.419355 a 3.1612903,3.1612903 0 1 0 -3.16129,-3.16129 3.1612903,3.1612903 0 0 0 3.16129,3.16129 z m 15.806452,0 a 3.1612903,3.1612903 0 1 0 -3.161291,-3.16129 3.1612903,3.1612903 0 0 0 3.161291,3.16129 z"
  />
</svg>
