<?xml version="1.0" encoding="UTF-8" standalone="no"?>
<svg viewBox="0 0 50 50" version="1.1" fill="currentColor" xmlns="http://www.w3.org/2000/svg">
  <path
     d="m 24.997257,31.447369 c 4.281052,0 7.73684,-3.45579 7.73684,-7.736842 V 8.2368421 c 0,-4.2810524 -3.455788,-7.73684195 -7.73684,-7.73684195 -4.281053,0 -7.736844,3.45578955 -7.736844,7.73684195 V 23.710527 c 0,4.281052 3.455791,7.736842 7.736844,7.736842 z m 15.241578,-7.736842 c -1.263685,0 -2.321054,0.928421 -2.527369,2.192105 -1.057368,6.060526 -6.34421,10.702633 -12.714209,10.702633 -6.370002,0 -11.656845,-4.642107 -12.714212,-10.702633 -0.206317,-1.263684 -1.263686,-2.192105 -2.5273694,-2.192105 -1.5731586,0 -2.811052,1.392632 -2.5789466,2.94 1.2636837,7.736842 7.453157,13.797369 15.241579,14.906315 v 5.364212 c 0,1.418421 1.160527,2.578946 2.578949,2.578946 1.418419,0 2.578946,-1.160525 2.578946,-2.578946 v -5.364212 c 7.78842,-1.108946 13.977895,-7.169473 15.241579,-14.906315 0.257894,-1.547368 -1.00579,-2.94 -2.578947,-2.94 z"
    />
</svg>
