<?xml version="1.0" encoding="UTF-8" standalone="no"?>
<svg version="1.1" viewBox="0 0 50 50" xmlns="http://www.w3.org/2000/svg" fill="currentColor">
<path
   d="M 43.873417,32.841772 24.025316,12.993671 c -2.126582,-2.126582 -6.025316,-2.126582 -8.151899,0 -1.063291,1.063291 -1.772151,2.481013 -1.772151,4.075949 0,1.594937 0.531645,3.012658 1.772151,4.07595 l 12.759494,12.759493 c 0.708861,0.708861 1.772152,0.708861 2.481013,0 0.708861,-0.70886 0.708861,-1.772152 0,-2.481012 L 18.35443,18.664557 C 18,18.310127 17.645569,17.601266 17.645569,17.06962 c 0,-0.531645 0.177216,-1.240506 0.708861,-1.594936 0.886076,-0.886076 2.303798,-0.886076 3.189874,0 l 19.848101,19.848101 c 1.240506,1.240506 1.772152,2.835443 1.772152,4.43038 0,1.594936 -0.708861,3.189873 -1.772152,4.430379 -2.303798,2.303798 -6.556962,2.303798 -8.86076,0 L 9.848101,21.5 c -4.0759493,-4.075949 -4.0759493,-10.455696 0,-14.5316456 4.075949,-4.0759493 10.455696,-4.0759493 14.531646,0 L 39.974683,22.563291 c 0.708861,0.708861 1.772152,0.708861 2.481013,0 0.708861,-0.708861 0.708861,-1.772152 0,-2.481013 L 26.860759,4.4873418 c -5.316455,-5.31645572 -14.177215,-5.31645572 -19.4936706,0 C 4.7088605,6.9683544 3.291139,10.512658 3.291139,14.234177 c 0,3.721519 1.4177215,7.088608 4.0759494,9.746836 L 30.050633,46.664557 C 31.822785,48.436709 34.303797,49.5 36.962025,49.5 c 2.658228,0 5.139241,-1.063291 6.911392,-2.835443 1.772152,-1.772152 2.835444,-4.253165 2.835444,-6.911392 0,-2.658228 -1.063292,-5.139241 -2.835444,-6.911393 z"
	/>
</svg>
