<?xml version="1.0" encoding="UTF-8" standalone="no"?>
<svg version="1.1" viewBox="0 0 50 50" fill="currentColor" xmlns="http://www.w3.org/2000/svg">
  <path
     d="M 48.995043,0.96732114 C 48.456209,0.60809864 47.737764,0.42848734 47.19893,0.60809864 L 1.7572789,17.311947 C 1.0388338,17.491558 0.5,18.210003 0.5,18.928448 c 0,0.718446 0.5388338,1.436891 1.2572789,1.616502 L 20.077628,27.370178 38.038755,9.4090507 c 0.718446,-0.718445 1.796113,-0.718445 2.514558,0 0.718445,0.7184453 0.718445,1.7961133 0,2.5145583 L 22.951409,29.525513 34.805753,48.564308 c 0.359222,0.538834 0.898056,0.898056 1.43689,0.898056 0.179611,0 0.179611,0 0.359222,0 0.718445,-0.179611 1.257279,-0.718445 1.43689,-1.257278 L 49.174654,2.9430451 C 49.713488,2.2246 49.533877,1.5061549 48.995043,0.96732114 Z"
     />
</svg>
